<svg viewBox="0 0 1024 1024" xmlns="http://www.w3.org/2000/svg">
  <path fill="#000" d="M0 0h1024v1024H0z" />
  <path
    d="M296 704h48v48h-48v-48zM296 656h48v48h-48v-48zM296 608h48v48h-48v-48zM296 560h48v48h-48v-48zM296 512h48v48h-48v-48zM296 464h48v48h-48v-48zM296 416h48v48h-48v-48zM296 320h48v48h-48v-48zM296 368h48v48h-48v-48zM344 704h48v48h-48v-48zM344 656h48v48h-48v-48zM344 272h48v48h-48v-48zM392 224h48v48h-48v-48zM392 752h48v48h-48v-48zM392 704h48v48h-48v-48zM392 512h48v48h-48v-48zM392 416h48v48h-48v-48zM440 752h48v48h-48v-48zM440 656h48v48h-48v-48zM440 512h48v48h-48v-48zM440 416h48v48h-48v-48zM248 608h48v48h-48v-48zM248 560h48v48h-48v-48zM248 512h48v48h-48v-48zM248 464h48v48h-48v-48zM248 416h48v48h-48v-48zM680 704h48v48h-48v-48zM680 272h48v48h-48v-48zM728 224h48v48h-48v-48zM728 656h48v48h-48v-48zM488 752h48v48h-48v-48zM488 656h48v48h-48v-48zM488 608h48v48h-48v-48zM488 560h48v48h-48v-48zM488 512h48v48h-48v-48zM488 464h48v48h-48v-48zM488 416h48v48h-48v-48zM488 320h48v48h-48v-48zM488 368h48v48h-48v-48zM536 752h48v48h-48v-48zM536 608h48v48h-48v-48zM536 560h48v48h-48v-48zM536 512h48v48h-48v-48zM536 464h48v48h-48v-48zM536 416h48v48h-48v-48zM536 272h48v48h-48v-48zM536 320h48v48h-48v-48zM536 368h48v48h-48v-48zM584 224h48v48h-48v-48zM584 752h48v48h-48v-48zM632 224h48v48h-48v-48zM632 752h48v48h-48v-48zM632 704h48v48h-48v-48zM632 608h48v48h-48v-48zM632 560h48v48h-48v-48zM632 512h48v48h-48v-48zM632 464h48v48h-48v-48zM632 416h48v48h-48v-48zM632 272h48v48h-48v-48zM632 368h48v48h-48v-48z"
    fill="#DDD" />
</svg>