<svg width="1024" height="1024" xmlns="http://www.w3.org/2000/svg">
  <path
    d="M437 392h30v30h-30v-30zM467 362h30v30h-30v-30zM497 332h30v30h-30v-30zM527 332h30v30h-30v-30zM557 332h30v30h-30v-30zM587 332h30v30h-30v-30zM617 332h30v30h-30v-30zM647 332h30v30h-30v-30zM677 332h30v30h-30v-30zM467 422h30v30h-30v-30zM497 422h30v30h-30v-30zM527 392h30v30h-30v-30zM557 422h30v30h-30v-30zM587 422h30v30h-30v-30zM527 452h30v30h-30v-30zM557 452h30v30h-30v-30zM557 482h30v30h-30v-30zM557 512h30v30h-30v-30zM527 512h30v30h-30v-30zM527 482h30v30h-30v-30zM527 542h30v30h-30v-30zM527 572h30v30h-30v-30zM557 572h30v30h-30v-30zM557 542h30v30h-30v-30zM617 452h30v30h-30v-30zM647 452h30v30h-30v-30zM617 512h30v30h-30v-30zM647 512h30v30h-30v-30zM677 422h30v30h-30v-30zM677 452h30v30h-30v-30zM677 482h30v30h-30v-30zM677 512h30v30h-30v-30zM677 542h30v30h-30v-30zM677 572h30v30h-30v-30zM707 572h30v30h-30v-30zM707 542h30v30h-30v-30zM707 512h30v30h-30v-30zM707 482h30v30h-30v-30zM707 452h30v30h-30v-30zM677 602h30v30h-30v-30zM647 602h30v30h-30v-30zM557 602h30v30h-30v-30zM587 602h30v30h-30v-30zM617 632h30v30h-30v-30zM587 632h30v30h-30v-30zM557 632h30v30h-30v-30zM617 662h30v30h-30v-30zM647 662h30v30h-30v-30zM677 662h30v30h-30v-30zM707 662h30v30h-30v-30zM617 362h30v30h-30v-30zM647 362h30v30h-30v-30zM677 362h30v30h-30v-30zM707 392h30v30h-30v-30zM707 422h30v30h-30v-30zM707 362h30v30h-30v-30zM737 362h30v30h-30v-30zM767 362h30v30h-30v-30zM767 392h30v30h-30v-30zM767 422h30v30h-30v-30zM767 452h30v30h-30v-30zM767 482h30v30h-30v-30zM767 512h30v30h-30v-30zM767 542h30v30h-30v-30zM797 362h30v30h-30v-30zM827 332h30v30h-30v-30zM767 572h30v30h-30v-30zM767 602h30v30h-30v-30zM737 632h30v30h-30v-30zM167 572h30v30h-30v-30zM167 542h30v30h-30v-30zM167 512h30v30h-30v-30zM167 482h30v30h-30v-30zM197 482h30v30h-30v-30zM197 512h30v30h-30v-30zM197 542h30v30h-30v-30zM197 572h30v30h-30v-30zM197 602h30v30h-30v-30zM227 602h30v30h-30v-30zM227 632h30v30h-30v-30zM197 632h30v30h-30v-30zM257 632h30v30h-30v-30zM257 662h30v30h-30v-30zM287 662h30v30h-30v-30zM317 662h30v30h-30v-30zM347 662h30v30h-30v-30zM377 662h30v30h-30v-30zM407 632h30v30h-30v-30zM437 632h30v30h-30v-30zM407 662h30v30h-30v-30zM467 602h30v30h-30v-30zM167 452h30v30h-30v-30zM197 452h30v30h-30v-30zM197 422h30v30h-30v-30zM197 392h30v30h-30v-30zM227 362h30v30h-30v-30zM257 332h30v30h-30v-30zM257 452h30v30h-30v-30zM287 452h30v30h-30v-30zM257 512h30v30h-30v-30zM287 512h30v30h-30v-30zM317 512h30v30h-30v-30zM317 452h30v30h-30v-30zM317 482h30v30h-30v-30zM317 542h30v30h-30v-30zM347 512h30v30h-30v-30zM347 482h30v30h-30v-30zM347 452h30v30h-30v-30zM347 542h30v30h-30v-30zM287 602h30v30h-30v-30zM317 602h30v30h-30v-30zM317 572h30v30h-30v-30zM347 572h30v30h-30v-30zM407 572h30v30h-30v-30zM407 542h30v30h-30v-30zM407 512h30v30h-30v-30zM407 482h30v30h-30v-30zM407 452h30v30h-30v-30zM407 422h30v30h-30v-30zM347 422h30v30h-30v-30zM317 422h30v30h-30v-30zM317 392h30v30h-30v-30zM347 392h30v30h-30v-30zM347 362h30v30h-30v-30zM377 332h30v30h-30v-30zM407 332h30v30h-30v-30zM407 362h30v30h-30v-30zM437 362h30v30h-30v-30zM467 332h30v30h-30v-30z" />
</svg>