<svg width="1024" height="1024" xmlns="http://www.w3.org/2000/svg">
  <path fill="#000" d="M0 0h1024v1024H0z" />
  <path
    d="M422 368h36v36h-36v-36zM458 332h36v36h-36v-36zM494 296h36v36h-36v-36zM530 296h36v36h-36v-36zM566 296h36v36h-36v-36zM602 296h36v36h-36v-36zM638 296h36v36h-36v-36zM674 296h36v36h-36v-36zM710 296h36v36h-36v-36zM458 404h36v36h-36v-36zM494 404h36v36h-36v-36zM530 368h36v36h-36v-36zM566 404h36v36h-36v-36zM602 404h36v36h-36v-36zM530 440h36v36h-36v-36zM566 440h36v36h-36v-36zM566 476h36v36h-36v-36zM566 512h36v36h-36v-36zM530 512h36v36h-36v-36zM530 476h36v36h-36v-36zM530 548h36v36h-36v-36zM530 584h36v36h-36v-36zM566 584h36v36h-36v-36zM566 548h36v36h-36v-36zM638 440h36v36h-36v-36zM674 440h36v36h-36v-36zM638 512h36v36h-36v-36zM674 512h36v36h-36v-36zM710 404h36v36h-36v-36zM710 440h36v36h-36v-36zM710 476h36v36h-36v-36zM710 512h36v36h-36v-36zM710 548h36v36h-36v-36zM710 584h36v36h-36v-36zM746 584h36v36h-36v-36zM746 548h36v36h-36v-36zM746 512h36v36h-36v-36zM746 476h36v36h-36v-36zM746 440h36v36h-36v-36zM710 620h36v36h-36v-36zM674 620h36v36h-36v-36zM566 620h36v36h-36v-36zM602 620h36v36h-36v-36zM638 656h36v36h-36v-36zM602 656h36v36h-36v-36zM566 656h36v36h-36v-36zM638 692h36v36h-36v-36zM674 692h36v36h-36v-36zM710 692h36v36h-36v-36zM746 692h36v36h-36v-36zM638 332h36v36h-36v-36zM674 332h36v36h-36v-36zM710 332h36v36h-36v-36zM746 368h36v36h-36v-36zM746 404h36v36h-36v-36zM746 332h36v36h-36v-36zM782 332h36v36h-36v-36zM818 332h36v36h-36v-36zM818 368h36v36h-36v-36zM818 404h36v36h-36v-36zM818 440h36v36h-36v-36zM818 476h36v36h-36v-36zM818 512h36v36h-36v-36zM818 548h36v36h-36v-36zM854 332h36v36h-36v-36zM890 296h36v36h-36v-36zM818 584h36v36h-36v-36zM818 620h36v36h-36v-36zM782 656h36v36h-36v-36zM98 584h36v36H98v-36zM98 548h36v36H98v-36zM98 512h36v36H98v-36zM98 476h36v36H98v-36zM134 476h36v36h-36v-36zM134 512h36v36h-36v-36zM134 548h36v36h-36v-36zM134 584h36v36h-36v-36zM134 620h36v36h-36v-36zM170 620h36v36h-36v-36zM170 656h36v36h-36v-36zM134 656h36v36h-36v-36zM206 656h36v36h-36v-36zM206 692h36v36h-36v-36zM242 692h36v36h-36v-36zM278 692h36v36h-36v-36zM314 692h36v36h-36v-36zM350 692h36v36h-36v-36zM386 656h36v36h-36v-36zM422 656h36v36h-36v-36zM386 692h36v36h-36v-36zM458 620h36v36h-36v-36zM98 440h36v36H98v-36zM134 440h36v36h-36v-36zM134 404h36v36h-36v-36zM134 368h36v36h-36v-36zM170 332h36v36h-36v-36zM206 296h36v36h-36v-36zM206 440h36v36h-36v-36zM242 440h36v36h-36v-36zM206 512h36v36h-36v-36zM242 512h36v36h-36v-36zM278 512h36v36h-36v-36zM278 440h36v36h-36v-36zM278 476h36v36h-36v-36zM278 548h36v36h-36v-36zM314 512h36v36h-36v-36zM314 476h36v36h-36v-36zM314 440h36v36h-36v-36zM314 548h36v36h-36v-36zM242 620h36v36h-36v-36zM278 620h36v36h-36v-36zM278 584h36v36h-36v-36zM314 584h36v36h-36v-36zM386 584h36v36h-36v-36zM386 548h36v36h-36v-36zM386 512h36v36h-36v-36zM386 476h36v36h-36v-36zM386 440h36v36h-36v-36zM386 404h36v36h-36v-36zM314 404h36v36h-36v-36zM278 404h36v36h-36v-36zM278 368h36v36h-36v-36zM314 368h36v36h-36v-36zM314 332h36v36h-36v-36zM350 296h36v36h-36v-36zM386 296h36v36h-36v-36zM386 332h36v36h-36v-36zM422 332h36v36h-36v-36zM458 296h36v36h-36v-36z"
    fill="#DDD" />
</svg>